<svg width="71" height="68" viewBox="0 0 71 68" fill="none" xmlns="http://www.w3.org/2000/svg">
<path d="M35.4832 68C40.4114 68 45.0148 67.12 49.2934 65.3599C53.5944 63.5997 57.369 61.1635 60.6171 58.0511C63.8653 54.9388 66.4078 51.3327 68.2447 47.233C70.0816 43.1117 71 38.7008 71 34C71 29.2778 70.0816 24.8668 68.2447 20.767C66.4078 16.6458 63.8653 13.029 60.6171 9.91667C57.369 6.80429 53.5944 4.37879 49.2934 2.64015C45.0148 0.880051 40.4226 0 35.5168 0C34.2399 0 33.2207 0.332702 32.4591 0.998106C31.7198 1.66351 31.3502 2.58649 31.3502 3.76705V14.6174C31.3502 15.6477 31.6862 16.5063 32.3583 17.1932C33.0303 17.8586 33.8927 18.1913 34.9456 18.1913C35.9984 18.1913 36.8609 17.8586 37.5329 17.1932C38.2049 16.5063 38.5409 15.6477 38.5409 14.6174V3.47727L34.6432 8.27462C38.4513 8.1673 42.0131 8.75758 45.3284 10.0455C48.6438 11.3333 51.5559 13.1686 54.0648 15.5511C56.5962 17.9122 58.5674 20.6705 59.9787 23.8258C61.4124 26.9811 62.1292 30.3725 62.1292 34C62.1292 37.5202 61.446 40.8258 60.0795 43.9167C58.713 46.9861 56.809 49.6907 54.3673 52.0303C51.9479 54.37 49.1254 56.2052 45.8997 57.536C42.6739 58.8668 39.2018 59.5322 35.4832 59.5322C31.787 59.5322 28.3261 58.8668 25.1003 57.536C21.8746 56.2052 19.0409 54.37 16.5991 52.0303C14.1574 49.6907 12.2534 46.9861 10.8869 43.9167C9.52043 40.8258 8.8372 37.5202 8.8372 34C8.8596 31.1237 9.35242 28.3655 10.3157 25.7254C11.2789 23.0852 12.6118 20.6919 14.3142 18.5455C15.1431 17.3864 15.6135 16.2809 15.7255 15.2292C15.8375 14.1774 15.4007 13.2008 14.415 12.2992C13.4518 11.4192 12.2982 11.0543 10.9541 11.2045C9.61003 11.3333 8.45638 12.0309 7.49314 13.2973C5.16343 16.1736 3.32655 19.3718 1.98249 22.892C0.66083 26.4122 0 30.1149 0 34C0 38.7008 0.918441 43.1117 2.75532 47.233C4.59221 51.3327 7.13472 54.9388 10.3829 58.0511C13.631 61.1635 17.3944 63.5997 21.673 65.3599C25.974 67.12 30.5774 68 35.4832 68ZM40.9266 39.4091C41.9347 38.4217 42.5395 37.3485 42.7411 36.1894C42.9427 35.0303 42.7859 33.9141 42.2707 32.8409C41.7779 31.7462 40.949 30.834 39.7842 30.1042L23.8235 19.8655C22.9722 19.3289 22.1994 19.1787 21.505 19.4148C20.8105 19.6294 20.3513 20.0694 20.1273 20.7348C19.9033 21.4003 20.0601 22.1301 20.5977 22.9242L31.283 38.25C32.0446 39.3662 32.9855 40.1711 34.1055 40.6648C35.2256 41.1585 36.3904 41.3087 37.6001 41.1155C38.8321 40.9223 39.941 40.3535 40.9266 39.4091Z" fill="url(#paint0_linear_19_451)"/>
<defs>
<linearGradient id="paint0_linear_19_451" x1="11" y1="7.12898e-08" x2="35.5" y2="68" gradientUnits="userSpaceOnUse">
<stop stop-color="#51CF66"/>
<stop offset="1" stop-color="#37B24D"/>
</linearGradient>
</defs>
</svg>
